<?xml version="1.0" encoding="UTF-8"?>
<svg width="1024px" height="1024px" viewBox="0 0 1024 1024" version="1.1" xmlns="http://www.w3.org/2000/svg" xmlns:xlink="http://www.w3.org/1999/xlink">
    <title>Artboard</title>
    <defs>
        <radialGradient cx="0%" cy="0%" fx="0%" fy="0%" r="141.4%" id="radialGradient-1">
            <stop stop-color="#F9B25F" offset="0%"></stop>
            <stop stop-color="#F72CA6" offset="67%"></stop>
            <stop stop-color="#E648AD" offset="75.9%"></stop>
            <stop stop-color="#A75FE5" offset="100%"></stop>
        </radialGradient>
    </defs>
    <g id="Artboard" stroke="none" stroke-width="1" fill="none" fill-rule="evenodd">
        <g id="clicksend_icon_only_gradient" fill-rule="nonzero">
            <polygon id="Path" fill="url(#radialGradient-1)" points="0 0 1024 0 1024 1024 0 1024"></polygon>
            <g id="Group" transform="translate(175.000000, 229.000000)" fill="#FFFFFF">
                <path d="M625.789713,86.3230657 L568.775593,86.3230657 L568.775593,336.762258 C568.037477,377.23226 535.190686,409.75686 494.691377,410.119788 L275.511346,410.119788 L270.390318,415.237755 C276.576384,436.48063 295.720145,451.346027 317.845184,452.087118 L408.999496,452.087118 L543.170449,564 L543.170449,452.087118 L625.448311,452.087118 C651.394856,452.087118 677,428.203272 677,402.613436 L677,131.702374 C677,105.771341 651.394856,86.3230657 625.789713,86.3230657 L625.789713,86.3230657 Z" id="Path"></path>
                <path d="M494.349975,0 L49.8446798,0 C23.8981341,0 2.42580652e-14,20.8130861 2.42580652e-14,46.7441197 L2.42580652e-14,336.762258 C2.42580652e-14,362.693292 23.8981341,384.87115 49.8446798,384.87115 L134.170953,384.87115 L134.170953,498.49002 L266.634897,384.87115 L494.349975,384.87115 C520.979324,384.87115 542.146243,363.375688 543.170449,337.103456 L543.170449,46.4029219 C542.072109,20.4473746 520.685655,-0.0231809299 494.691377,0 L494.349975,0 Z" id="Path"></path>
            </g>
        </g>
    </g>
</svg>